<?xml version="1.0" encoding="UTF-8" standalone="no"?>
<svg
   width="128"
   height="28.83"
   viewBox="0 0 128 28.83"
   version="1.1"
   id="svg3"
   sodipodi:docname="logo.svg"
   inkscape:export-filename="logo.png"
   inkscape:export-xdpi="96"
   inkscape:export-ydpi="96"
   inkscape:version="1.3.2 (091e20e, 2023-11-25, custom)"
   xmlns:inkscape="http://www.inkscape.org/namespaces/inkscape"
   xmlns:sodipodi="http://sodipodi.sourceforge.net/DTD/sodipodi-0.dtd"
   xmlns="http://www.w3.org/2000/svg"
   xmlns:svg="http://www.w3.org/2000/svg">
  <defs
     id="defs3" />
  <sodipodi:namedview
     id="namedview3"
     pagecolor="#ffffff"
     bordercolor="#666666"
     borderopacity="1.0"
     inkscape:showpageshadow="2"
     inkscape:pageopacity="0.0"
     inkscape:pagecheckerboard="0"
     inkscape:deskcolor="#d1d1d1"
     inkscape:zoom="7.7505532"
     inkscape:cx="65.221151"
     inkscape:cy="26.643259"
     inkscape:window-width="1920"
     inkscape:window-height="1017"
     inkscape:window-x="-8"
     inkscape:window-y="-8"
     inkscape:window-maximized="1"
     inkscape:current-layer="svg3" />
  <g
     id="g3"
     transform="matrix(-1,0,0,1,243.65273,0)">
    <path
       d="m 279.1,64.92 c 0,0 -7.36,-0.43 -10.09,4.18 a 12.28,12.28 0 0 0 -1.35,9.57 50,50 0 0 1 5.14,-7.32 83.62,83.62 0 0 1 6.3,-6.43 z"
       fill="#8ac21c"
       id="path2"
       transform="translate(-151.58,-64.5)" />
    <path
       d="m 267.66,78.67 a 50,50 0 0 1 5.14,-7.32 83.62,83.62 0 0 1 6.3,-6.43 c 0,0 1.85,6.22 -1.72,10.35 -3.57,4.13 -9.72,3.4 -9.72,3.4 z"
       transform="translate(-151.58,-64.5)"
       fill="#008542"
       id="path3" />
  </g>
  <text
     xml:space="preserve"
     style="font-style:normal;font-weight:normal;font-size:34.3158px;line-height:0;font-family:sans-serif;letter-spacing:-1.55279px;word-spacing:0px;fill:#0064b3;fill-opacity:1;stroke:none;stroke-width:0.857893"
     x="1.8551657"
     y="22.888596"
     id="text3"><tspan
       sodipodi:role="line"
       id="tspan3"
       x="1.8551657"
       y="22.888596"
       style="font-style:normal;font-variant:normal;font-weight:normal;font-stretch:normal;font-size:34.3158px;line-height:0;font-family:'Europa Grotesk SH';-inkscape-font-specification:'Europa Grotesk SH, Normal';font-variant-ligatures:normal;font-variant-caps:normal;font-variant-numeric:normal;font-variant-east-asian:normal;letter-spacing:-1.55279px;fill:#0064b3;fill-opacity:1;stroke-width:0.857893">Bengon</tspan></text>
</svg>
