{
    "asset" : {
        "generator" : "Khronos glTF Blender I/O v1.8.19",
        "version" : "2.0"
    },
    "scene" : 0,
    "scenes" : [
        {
            "name" : "Scene",
            "nodes" : [
                0,
                1,
                2,
                4,
                5,
                6,
                7
            ]
        }
    ],
    "nodes" : [
        {
            "mesh" : 0,
            "name" : "Plane.001",
            "translation" : [
                0.9599999785423279,
                0.0003604516386985779,
                -0.8877151012420654
            ]
        },
        {
            "mesh" : 1,
            "name" : "Plane.002",
            "rotation" : [
                0,
                0,
                -0.7071067690849304,
                0.7071068286895752
            ],
            "scale" : [
                0.10000002384185791,
                0.10000002384185791,
                0.10000002384185791
            ],
            "translation" : [
                -0.10624998807907104,
                0.0003604516386985779,
                -0.6852830648422241
            ]
        },
        {
            "name" : "Plane.003",
            "rotation" : [
                0,
                0,
                -0.7071067690849304,
                0.7071068286895752
            ],
            "scale" : [
                0.10000002384185791,
                0.10000002384185791,
                0.10000002384185791
            ],
            "translation" : [
                -0.10624998807907104,
                0.0003604516386985779,
                -0.6852830648422241
            ]
        },
        {
            "mesh" : 2,
            "name" : "Plane.006",
            "rotation" : [
                0,
                -0.7071068286895752,
                0,
                0.7071068286895752
            ],
            "translation" : [
                0,
                0.004999995231628418,
                -0.01528632640838623
            ]
        },
        {
            "children" : [
                3
            ],
            "mesh" : 3,
            "name" : "Plane.005",
            "translation" : [
                0.9599999785423279,
                -0.10678701102733612,
                -0.8877151012420654
            ]
        },
        {
            "mesh" : 4,
            "name" : "Plane.008",
            "translation" : [
                0.9599999785423279,
                0.0003604516386985779,
                -0.8877151012420654
            ]
        },
        {
            "mesh" : 5,
            "name" : "Plane.004",
            "translation" : [
                0.9599999785423279,
                0.0003604516386985779,
                -0.8877151012420654
            ]
        },
        {
            "mesh" : 6,
            "name" : "Plane.007",
            "translation" : [
                0.9600006341934204,
                0,
                -0.014569878578186035
            ]
        }
    ],
    "materials" : [
        {
            "doubleSided" : true,
            "name" : "Silver",
            "pbrMetallicRoughness" : {
                "baseColorTexture" : {
                    "index" : 0
                },
                "metallicFactor" : 0.800000011920929,
                "roughnessFactor" : 0.1599999964237213
            }
        },
        {
            "doubleSided" : true,
            "name" : "ShinySilver",
            "pbrMetallicRoughness" : {
                "baseColorTexture" : {
                    "index" : 1
                },
                "metallicFactor" : 0.949999988079071,
                "roughnessFactor" : 0.10000000149011612
            }
        }
    ],
    "meshes" : [
        {
            "name" : "Plane.001",
            "primitives" : [
                {
                    "attributes" : {
                        "POSITION" : 0,
                        "NORMAL" : 1,
                        "TEXCOORD_0" : 2
                    },
                    "indices" : 3,
                    "material" : 0
                }
            ]
        },
        {
            "name" : "Plane.003",
            "primitives" : [
                {
                    "attributes" : {
                        "POSITION" : 4,
                        "NORMAL" : 5,
                        "TEXCOORD_0" : 6
                    },
                    "indices" : 7,
                    "material" : 0
                }
            ]
        },
        {
            "name" : "Plane.007",
            "primitives" : [
                {
                    "attributes" : {
                        "POSITION" : 8,
                        "NORMAL" : 9,
                        "TEXCOORD_0" : 10
                    },
                    "indices" : 11,
                    "material" : 0
                }
            ]
        },
        {
            "name" : "Plane.006",
            "primitives" : [
                {
                    "attributes" : {
                        "POSITION" : 12,
                        "NORMAL" : 13,
                        "TEXCOORD_0" : 14
                    },
                    "indices" : 15,
                    "material" : 0
                }
            ]
        },
        {
            "name" : "Plane.009",
            "primitives" : [
                {
                    "attributes" : {
                        "POSITION" : 16,
                        "NORMAL" : 17
                    },
                    "indices" : 18,
                    "material" : 0
                }
            ]
        },
        {
            "name" : "Plane.005",
            "primitives" : [
                {
                    "attributes" : {
                        "POSITION" : 19,
                        "NORMAL" : 20
                    },
                    "indices" : 21,
                    "material" : 0
                }
            ]
        },
        {
            "name" : "Plane.008",
            "primitives" : [
                {
                    "attributes" : {
                        "POSITION" : 22,
                        "NORMAL" : 23,
                        "TEXCOORD_0" : 24
                    },
                    "indices" : 25,
                    "material" : 1
                },
                {
                    "attributes" : {
                        "POSITION" : 26,
                        "NORMAL" : 27,
                        "TEXCOORD_0" : 28
                    },
                    "indices" : 29,
                    "material" : 0
                }
            ]
        }
    ],
    "textures" : [
        {
            "sampler" : 0,
            "source" : 0
        },
        {
            "sampler" : 0,
            "source" : 0
        }
    ],
    "images" : [
        {
            "bufferView" : 4,
            "mimeType" : "image/jpeg",
            "name" : "brushed metal"
        }
    ],
    "accessors" : [
        {
            "bufferView" : 0,
            "componentType" : 5126,
            "count" : 842,
            "max" : [
                1.066249966621399,
                0.3088519871234894,
                1.0631451606750488
            ],
            "min" : [
                -1.066249966621399,
                -0.3088519871234894,
                -0.9693951606750488
            ],
            "type" : "VEC3"
        },
        {
            "bufferView" : 1,
            "componentType" : 5126,
            "count" : 842,
            "type" : "VEC3"
        },
        {
            "bufferView" : 2,
            "componentType" : 5126,
            "count" : 842,
            "type" : "VEC2"
        },
        {
            "bufferView" : 3,
            "componentType" : 5123,
            "count" : 3732,
            "type" : "SCALAR"
        },
        {
            "bufferView" : 5,
            "componentType" : 5126,
            "count" : 562,
            "max" : [
                0.5000000596046448,
                3.767158318623842e-08,
                0.3000003695487976
            ],
            "min" : [
                -0.5,
                -0.6107945442199707,
                -0.2999997138977051
            ],
            "type" : "VEC3"
        },
        {
            "bufferView" : 6,
            "componentType" : 5126,
            "count" : 562,
            "type" : "VEC3"
        },
        {
            "bufferView" : 7,
            "componentType" : 5126,
            "count" : 562,
            "type" : "VEC2"
        },
        {
            "bufferView" : 8,
            "componentType" : 5123,
            "count" : 1632,
            "type" : "SCALAR"
        },
        {
            "bufferView" : 9,
            "componentType" : 5126,
            "count" : 980,
            "max" : [
                1.3861249685287476,
                0.2220556139945984,
                1.1742777824401855
            ],
            "min" : [
                1.186010479927063,
                0,
                -1.1742777824401855
            ],
            "type" : "VEC3"
        },
        {
            "bufferView" : 10,
            "componentType" : 5126,
            "count" : 980,
            "type" : "VEC3"
        },
        {
            "bufferView" : 11,
            "componentType" : 5126,
            "count" : 980,
            "type" : "VEC2"
        },
        {
            "bufferView" : 12,
            "componentType" : 5123,
            "count" : 2976,
            "type" : "SCALAR"
        },
        {
            "bufferView" : 13,
            "componentType" : 5126,
            "count" : 272,
            "max" : [
                1.3861249685287476,
                0.004999999888241291,
                1.3708387613296509
            ],
            "min" : [
                -1.3861249685287476,
                -3.830065153920259e-09,
                -1.2638628482818604
            ],
            "type" : "VEC3"
        },
        {
            "bufferView" : 14,
            "componentType" : 5126,
            "count" : 272,
            "type" : "VEC3"
        },
        {
            "bufferView" : 15,
            "componentType" : 5126,
            "count" : 272,
            "type" : "VEC2"
        },
        {
            "bufferView" : 16,
            "componentType" : 5123,
            "count" : 936,
            "type" : "SCALAR"
        },
        {
            "bufferView" : 17,
            "componentType" : 5126,
            "count" : 1000,
            "max" : [
                1.0725072622299194,
                0.3149144649505615,
                -0.8631960153579712
            ],
            "min" : [
                -1.0725072622299194,
                0.19410185515880585,
                -0.975558340549469
            ],
            "type" : "VEC3"
        },
        {
            "bufferView" : 18,
            "componentType" : 5126,
            "count" : 1000,
            "type" : "VEC3"
        },
        {
            "bufferView" : 19,
            "componentType" : 5123,
            "count" : 5976,
            "type" : "SCALAR"
        },
        {
            "bufferView" : 20,
            "componentType" : 5126,
            "count" : 20288,
            "max" : [
                1.0745059251785278,
                0.30672284960746765,
                1.0744755268096924
            ],
            "min" : [
                -1.0743273496627808,
                -0.3076690137386322,
                0.8641950488090515
            ],
            "type" : "VEC3"
        },
        {
            "bufferView" : 21,
            "componentType" : 5126,
            "count" : 20288,
            "type" : "VEC3"
        },
        {
            "bufferView" : 22,
            "componentType" : 5123,
            "count" : 30432,
            "type" : "SCALAR"
        },
        {
            "bufferView" : 23,
            "componentType" : 5126,
            "count" : 4490,
            "max" : [
                0.9599993228912354,
                0.04980580508708954,
                0
            ],
            "min" : [
                -0.9599993228912354,
                -0.04980580508708954,
                -1.7438160181045532
            ],
            "type" : "VEC3"
        },
        {
            "bufferView" : 24,
            "componentType" : 5126,
            "count" : 4490,
            "type" : "VEC3"
        },
        {
            "bufferView" : 25,
            "componentType" : 5126,
            "count" : 4490,
            "type" : "VEC2"
        },
        {
            "bufferView" : 26,
            "componentType" : 5123,
            "count" : 9252,
            "type" : "SCALAR"
        },
        {
            "bufferView" : 27,
            "componentType" : 5126,
            "count" : 35976,
            "max" : [
                0.9120286703109741,
                0.058586955070495605,
                -0.11320525407791138
            ],
            "min" : [
                -0.9120286703109741,
                -0.058586955070495605,
                -1.6521642208099365
            ],
            "type" : "VEC3"
        },
        {
            "bufferView" : 28,
            "componentType" : 5126,
            "count" : 35976,
            "type" : "VEC3"
        },
        {
            "bufferView" : 29,
            "componentType" : 5126,
            "count" : 35976,
            "type" : "VEC2"
        },
        {
            "bufferView" : 30,
            "componentType" : 5123,
            "count" : 59184,
            "type" : "SCALAR"
        }
    ],
    "bufferViews" : [
        {
            "buffer" : 0,
            "byteLength" : 10104,
            "byteOffset" : 0
        },
        {
            "buffer" : 0,
            "byteLength" : 10104,
            "byteOffset" : 10104
        },
        {
            "buffer" : 0,
            "byteLength" : 6736,
            "byteOffset" : 20208
        },
        {
            "buffer" : 0,
            "byteLength" : 7464,
            "byteOffset" : 26944
        },
        {
            "buffer" : 0,
            "byteLength" : 2570,
            "byteOffset" : 34408
        },
        {
            "buffer" : 0,
            "byteLength" : 6744,
            "byteOffset" : 36980
        },
        {
            "buffer" : 0,
            "byteLength" : 6744,
            "byteOffset" : 43724
        },
        {
            "buffer" : 0,
            "byteLength" : 4496,
            "byteOffset" : 50468
        },
        {
            "buffer" : 0,
            "byteLength" : 3264,
            "byteOffset" : 54964
        },
        {
            "buffer" : 0,
            "byteLength" : 11760,
            "byteOffset" : 58228
        },
        {
            "buffer" : 0,
            "byteLength" : 11760,
            "byteOffset" : 69988
        },
        {
            "buffer" : 0,
            "byteLength" : 7840,
            "byteOffset" : 81748
        },
        {
            "buffer" : 0,
            "byteLength" : 5952,
            "byteOffset" : 89588
        },
        {
            "buffer" : 0,
            "byteLength" : 3264,
            "byteOffset" : 95540
        },
        {
            "buffer" : 0,
            "byteLength" : 3264,
            "byteOffset" : 98804
        },
        {
            "buffer" : 0,
            "byteLength" : 2176,
            "byteOffset" : 102068
        },
        {
            "buffer" : 0,
            "byteLength" : 1872,
            "byteOffset" : 104244
        },
        {
            "buffer" : 0,
            "byteLength" : 12000,
            "byteOffset" : 106116
        },
        {
            "buffer" : 0,
            "byteLength" : 12000,
            "byteOffset" : 118116
        },
        {
            "buffer" : 0,
            "byteLength" : 11952,
            "byteOffset" : 130116
        },
        {
            "buffer" : 0,
            "byteLength" : 243456,
            "byteOffset" : 142068
        },
        {
            "buffer" : 0,
            "byteLength" : 243456,
            "byteOffset" : 385524
        },
        {
            "buffer" : 0,
            "byteLength" : 60864,
            "byteOffset" : 628980
        },
        {
            "buffer" : 0,
            "byteLength" : 53880,
            "byteOffset" : 689844
        },
        {
            "buffer" : 0,
            "byteLength" : 53880,
            "byteOffset" : 743724
        },
        {
            "buffer" : 0,
            "byteLength" : 35920,
            "byteOffset" : 797604
        },
        {
            "buffer" : 0,
            "byteLength" : 18504,
            "byteOffset" : 833524
        },
        {
            "buffer" : 0,
            "byteLength" : 431712,
            "byteOffset" : 852028
        },
        {
            "buffer" : 0,
            "byteLength" : 431712,
            "byteOffset" : 1283740
        },
        {
            "buffer" : 0,
            "byteLength" : 287808,
            "byteOffset" : 1715452
        },
        {
            "buffer" : 0,
            "byteLength" : 118368,
            "byteOffset" : 2003260
        }
    ],
    "samplers" : [
        {
            "magFilter" : 9729,
            "minFilter" : 9987
        }
    ],
    "buffers" : [
        {
            "byteLength" : 2121628,
            "uri" : "data:application/octet-stream;base64,"
        }
    ]
}
