{
    "asset" : {
        "generator" : "Khronos glTF Blender I/O v1.8.19",
        "version" : "2.0"
    },
    "scene" : 0,
    "scenes" : [
        {
            "name" : "Scene",
            "nodes" : [
                0,
                1,
                2,
                3,
                5,
                6,
                7
            ]
        }
    ],
    "nodes" : [
        {
            "mesh" : 0,
            "name" : "Plane"
        },
        {
            "mesh" : 1,
            "name" : "Plane.001",
            "translation" : [
                0.9599999785423279,
                0.0003604516386985779,
                -0.8877151012420654
            ]
        },
        {
            "mesh" : 2,
            "name" : "Plane.002",
            "rotation" : [
                0,
                0,
                -0.7071067690849304,
                0.7071068286895752
            ],
            "scale" : [
                0.10000002384185791,
                0.10000002384185791,
                0.10000002384185791
            ],
            "translation" : [
                -0.10624998807907104,
                0.0003604516386985779,
                -0.6852830648422241
            ]
        },
        {
            "name" : "Plane.003",
            "rotation" : [
                0,
                0,
                -0.7071067690849304,
                0.7071068286895752
            ],
            "scale" : [
                0.10000002384185791,
                0.10000002384185791,
                0.10000002384185791
            ],
            "translation" : [
                -0.10624998807907104,
                0.0003604516386985779,
                -0.6852830648422241
            ]
        },
        {
            "mesh" : 3,
            "name" : "Plane.006",
            "rotation" : [
                0,
                0.7071068286895752,
                0,
                0.7071068286895752
            ],
            "translation" : [
                0,
                0.01000000536441803,
                0.12226235866546631
            ]
        },
        {
            "children" : [
                4
            ],
            "mesh" : 4,
            "name" : "Plane.005",
            "translation" : [
                0.9599999785423279,
                -0.10678701102733612,
                -0.8877151012420654
            ]
        },
        {
            "mesh" : 5,
            "name" : "Plane.008",
            "translation" : [
                0.9599999785423279,
                0.0003604516386985779,
                -0.8877151012420654
            ]
        },
        {
            "mesh" : 6,
            "name" : "Plane.004",
            "translation" : [
                0.9599999785423279,
                0.0003604516386985779,
                -0.8877151012420654
            ]
        }
    ],
    "materials" : [
        {
            "doubleSided" : true,
            "name" : "Silver",
            "pbrMetallicRoughness" : {
                "baseColorTexture" : {
                    "index" : 0
                },
                "metallicFactor" : 0.800000011920929,
                "roughnessFactor" : 0.1599999964237213
            }
        },
        {
            "doubleSided" : true,
            "name" : "rubber",
            "pbrMetallicRoughness" : {
                "baseColorFactor" : [
                    0.05342911183834076,
                    0.05342911183834076,
                    0.05342911183834076,
                    1
                ],
                "metallicFactor" : 0,
                "roughnessFactor" : 0.7795275449752808
            }
        }
    ],
    "meshes" : [
        {
            "name" : "Plane",
            "primitives" : [
                {
                    "attributes" : {
                        "POSITION" : 0,
                        "NORMAL" : 1,
                        "TEXCOORD_0" : 2
                    },
                    "indices" : 3,
                    "material" : 0
                },
                {
                    "attributes" : {
                        "POSITION" : 4,
                        "NORMAL" : 5,
                        "TEXCOORD_0" : 6
                    },
                    "indices" : 7,
                    "material" : 1
                }
            ]
        },
        {
            "name" : "Plane.001",
            "primitives" : [
                {
                    "attributes" : {
                        "POSITION" : 8,
                        "NORMAL" : 9,
                        "TEXCOORD_0" : 10
                    },
                    "indices" : 11,
                    "material" : 0
                }
            ]
        },
        {
            "name" : "Plane.003",
            "primitives" : [
                {
                    "attributes" : {
                        "POSITION" : 12,
                        "NORMAL" : 13,
                        "TEXCOORD_0" : 14
                    },
                    "indices" : 15,
                    "material" : 0
                }
            ]
        },
        {
            "name" : "Plane.007",
            "primitives" : [
                {
                    "attributes" : {
                        "POSITION" : 16,
                        "NORMAL" : 17,
                        "TEXCOORD_0" : 18
                    },
                    "indices" : 19,
                    "material" : 0
                }
            ]
        },
        {
            "name" : "Plane.006",
            "primitives" : [
                {
                    "attributes" : {
                        "POSITION" : 20,
                        "NORMAL" : 21,
                        "TEXCOORD_0" : 22
                    },
                    "indices" : 23,
                    "material" : 0
                }
            ]
        },
        {
            "name" : "Plane.009",
            "primitives" : [
                {
                    "attributes" : {
                        "POSITION" : 24,
                        "NORMAL" : 25
                    },
                    "indices" : 26,
                    "material" : 0
                }
            ]
        },
        {
            "name" : "Plane.010",
            "primitives" : [
                {
                    "attributes" : {
                        "POSITION" : 27,
                        "NORMAL" : 28
                    },
                    "indices" : 29,
                    "material" : 0
                }
            ]
        }
    ],
    "textures" : [
        {
            "sampler" : 0,
            "source" : 0
        }
    ],
    "images" : [
        {
            "bufferView" : 4,
            "mimeType" : "image/jpeg",
            "name" : "brushed metal"
        }
    ],
    "accessors" : [
        {
            "bufferView" : 0,
            "componentType" : 5126,
            "count" : 16318,
            "max" : [
                1.9199999570846558,
                0.04980580508708954,
                -0.014569878578186035
            ],
            "min" : [
                -5.538996995443912e-13,
                -0.04980580508708954,
                -1.7583858966827393
            ],
            "type" : "VEC3"
        },
        {
            "bufferView" : 1,
            "componentType" : 5126,
            "count" : 16318,
            "type" : "VEC3"
        },
        {
            "bufferView" : 2,
            "componentType" : 5126,
            "count" : 16318,
            "type" : "VEC2"
        },
        {
            "bufferView" : 3,
            "componentType" : 5123,
            "count" : 28836,
            "type" : "SCALAR"
        },
        {
            "bufferView" : 5,
            "componentType" : 5126,
            "count" : 180,
            "max" : [
                1.9199999570846558,
                0.03999999910593033,
                -0.5492902994155884
            ],
            "min" : [
                0,
                -0.03999999910593033,
                -1.7583858966827393
            ],
            "type" : "VEC3"
        },
        {
            "bufferView" : 6,
            "componentType" : 5126,
            "count" : 180,
            "type" : "VEC3"
        },
        {
            "bufferView" : 7,
            "componentType" : 5126,
            "count" : 180,
            "type" : "VEC2"
        },
        {
            "bufferView" : 8,
            "componentType" : 5123,
            "count" : 324,
            "type" : "SCALAR"
        },
        {
            "bufferView" : 9,
            "componentType" : 5126,
            "count" : 802,
            "max" : [
                1.066249966621399,
                0.3088519871234894,
                1.0631451606750488
            ],
            "min" : [
                -1.066249966621399,
                -0.3088519871234894,
                -0.9693951606750488
            ],
            "type" : "VEC3"
        },
        {
            "bufferView" : 10,
            "componentType" : 5126,
            "count" : 802,
            "type" : "VEC3"
        },
        {
            "bufferView" : 11,
            "componentType" : 5126,
            "count" : 802,
            "type" : "VEC2"
        },
        {
            "bufferView" : 12,
            "componentType" : 5123,
            "count" : 3516,
            "type" : "SCALAR"
        },
        {
            "bufferView" : 13,
            "componentType" : 5126,
            "count" : 562,
            "max" : [
                0.5000000596046448,
                3.767158318623842e-08,
                0.3000003695487976
            ],
            "min" : [
                -0.5,
                -0.6107945442199707,
                -0.2999997138977051
            ],
            "type" : "VEC3"
        },
        {
            "bufferView" : 14,
            "componentType" : 5126,
            "count" : 562,
            "type" : "VEC3"
        },
        {
            "bufferView" : 15,
            "componentType" : 5126,
            "count" : 562,
            "type" : "VEC2"
        },
        {
            "bufferView" : 16,
            "componentType" : 5123,
            "count" : 1632,
            "type" : "SCALAR"
        },
        {
            "bufferView" : 17,
            "componentType" : 5126,
            "count" : 1004,
            "max" : [
                1.386125087738037,
                0.2220556139945984,
                1.0662508010864258
            ],
            "min" : [
                1.186010479927063,
                0,
                -1.0662508010864258
            ],
            "type" : "VEC3"
        },
        {
            "bufferView" : 18,
            "componentType" : 5126,
            "count" : 1004,
            "type" : "VEC3"
        },
        {
            "bufferView" : 19,
            "componentType" : 5126,
            "count" : 1004,
            "type" : "VEC2"
        },
        {
            "bufferView" : 20,
            "componentType" : 5123,
            "count" : 2976,
            "type" : "SCALAR"
        },
        {
            "bufferView" : 21,
            "componentType" : 5126,
            "count" : 272,
            "max" : [
                1.3861249685287476,
                0.009999999776482582,
                1.3708387613296509
            ],
            "min" : [
                -1.3861249685287476,
                -3.830065153920259e-09,
                -1.2638628482818604
            ],
            "type" : "VEC3"
        },
        {
            "bufferView" : 22,
            "componentType" : 5126,
            "count" : 272,
            "type" : "VEC3"
        },
        {
            "bufferView" : 23,
            "componentType" : 5126,
            "count" : 272,
            "type" : "VEC2"
        },
        {
            "bufferView" : 24,
            "componentType" : 5123,
            "count" : 936,
            "type" : "SCALAR"
        },
        {
            "bufferView" : 25,
            "componentType" : 5126,
            "count" : 1000,
            "max" : [
                1.0725072622299194,
                0.3149144649505615,
                -0.8631960153579712
            ],
            "min" : [
                -1.0725072622299194,
                0.19410185515880585,
                -0.975558340549469
            ],
            "type" : "VEC3"
        },
        {
            "bufferView" : 26,
            "componentType" : 5126,
            "count" : 1000,
            "type" : "VEC3"
        },
        {
            "bufferView" : 27,
            "componentType" : 5123,
            "count" : 5976,
            "type" : "SCALAR"
        },
        {
            "bufferView" : 28,
            "componentType" : 5126,
            "count" : 1914,
            "max" : [
                1.0762957334518433,
                0.3122949004173279,
                1.0712840557098389
            ],
            "min" : [
                -1.0762957334518433,
                -0.20855484902858734,
                0.8643123507499695
            ],
            "type" : "VEC3"
        },
        {
            "bufferView" : 29,
            "componentType" : 5126,
            "count" : 1914,
            "type" : "VEC3"
        },
        {
            "bufferView" : 30,
            "componentType" : 5123,
            "count" : 11544,
            "type" : "SCALAR"
        }
    ],
    "bufferViews" : [
        {
            "buffer" : 0,
            "byteLength" : 195816,
            "byteOffset" : 0
        },
        {
            "buffer" : 0,
            "byteLength" : 195816,
            "byteOffset" : 195816
        },
        {
            "buffer" : 0,
            "byteLength" : 130544,
            "byteOffset" : 391632
        },
        {
            "buffer" : 0,
            "byteLength" : 57672,
            "byteOffset" : 522176
        },
        {
            "buffer" : 0,
            "byteLength" : 2570,
            "byteOffset" : 579848
        },
        {
            "buffer" : 0,
            "byteLength" : 2160,
            "byteOffset" : 582420
        },
        {
            "buffer" : 0,
            "byteLength" : 2160,
            "byteOffset" : 584580
        },
        {
            "buffer" : 0,
            "byteLength" : 1440,
            "byteOffset" : 586740
        },
        {
            "buffer" : 0,
            "byteLength" : 648,
            "byteOffset" : 588180
        },
        {
            "buffer" : 0,
            "byteLength" : 9624,
            "byteOffset" : 588828
        },
        {
            "buffer" : 0,
            "byteLength" : 9624,
            "byteOffset" : 598452
        },
        {
            "buffer" : 0,
            "byteLength" : 6416,
            "byteOffset" : 608076
        },
        {
            "buffer" : 0,
            "byteLength" : 7032,
            "byteOffset" : 614492
        },
        {
            "buffer" : 0,
            "byteLength" : 6744,
            "byteOffset" : 621524
        },
        {
            "buffer" : 0,
            "byteLength" : 6744,
            "byteOffset" : 628268
        },
        {
            "buffer" : 0,
            "byteLength" : 4496,
            "byteOffset" : 635012
        },
        {
            "buffer" : 0,
            "byteLength" : 3264,
            "byteOffset" : 639508
        },
        {
            "buffer" : 0,
            "byteLength" : 12048,
            "byteOffset" : 642772
        },
        {
            "buffer" : 0,
            "byteLength" : 12048,
            "byteOffset" : 654820
        },
        {
            "buffer" : 0,
            "byteLength" : 8032,
            "byteOffset" : 666868
        },
        {
            "buffer" : 0,
            "byteLength" : 5952,
            "byteOffset" : 674900
        },
        {
            "buffer" : 0,
            "byteLength" : 3264,
            "byteOffset" : 680852
        },
        {
            "buffer" : 0,
            "byteLength" : 3264,
            "byteOffset" : 684116
        },
        {
            "buffer" : 0,
            "byteLength" : 2176,
            "byteOffset" : 687380
        },
        {
            "buffer" : 0,
            "byteLength" : 1872,
            "byteOffset" : 689556
        },
        {
            "buffer" : 0,
            "byteLength" : 12000,
            "byteOffset" : 691428
        },
        {
            "buffer" : 0,
            "byteLength" : 12000,
            "byteOffset" : 703428
        },
        {
            "buffer" : 0,
            "byteLength" : 11952,
            "byteOffset" : 715428
        },
        {
            "buffer" : 0,
            "byteLength" : 22968,
            "byteOffset" : 727380
        },
        {
            "buffer" : 0,
            "byteLength" : 22968,
            "byteOffset" : 750348
        },
        {
            "buffer" : 0,
            "byteLength" : 23088,
            "byteOffset" : 773316
        }
    ],
    "samplers" : [
        {
            "magFilter" : 9729,
            "minFilter" : 9987
        }
    ],
    "buffers" : [
        {
            "byteLength" : 796404,
            "uri" : "data:application/octet-stream;base64,"
        }
    ]
}
